# xmcd
#
# Track frame offsets:
#	150
#	15307
#	28664
#	41346
#	59283
#	74542
#	91428
#	107739
#	122119
#	141644
#	155351
#	168461
#	179250
#	195405
#	209613
#	228763
#	243774
#	260371
#	280055
#	296723
#	311269
#
# Disc length: 4384 seconds
#
# Revision: 4
# Processed by: cddbd v1.5.2PL0 Copyright (c) Steve Scherf et al.
# Submitted via: audiograbber 1.83.01
#
DISCID=27111e15
DTITLE=Kenny Rogers - 42 Ultimate Hits, disc 1
DYEAR=2004
DGENRE=Country
TTITLE0=Just Dropped In (To See What Conition My Condition Was In)
TTITLE1=Ruby Don't Take Your Love To Town
TTITLE2=Reuben James
TTITLE3=Something's Burning
TTITLE4=Tell It All Brother
TTITLE5=Love Lifted Me
TTITLE6=Lucille
TTITLE7=Daytime Friends
TTITLE8=Sweet Music Man
TTITLE9=Every Time Two Fools Collide (with Dottie West)
TTITLE10=Love Or Something Like It
TTITLE11=Anyone Who Isn't Me Tonight (with Dottie West)
TTITLE12=The Gambler
TTITLE13=All I Ever Need Is You (with Dottie West)
TTITLE14=She Believes In Me
TTITLE15='Til I Can Make It On My Own (with Dottie West)
TTITLE16=You Decorated My Life
TTITLE17=Coward Of The County
TTITLE18=Don't Fall In Love With A Dreamer (with Kim Carnes)
TTITLE19=Love The World Away
TTITLE20=Lady
EXTD=YEAR: 2004
EXTT0=
EXTT1=
EXTT2=
EXTT3=
EXTT4=
EXTT5=
EXTT6=
EXTT7=
EXTT8=
EXTT9=
EXTT10=
EXTT11=
EXTT12=
EXTT13=
EXTT14=
EXTT15=
EXTT16=
EXTT17=
EXTT18=
EXTT19=
EXTT20=
PLAYORDER=
